<svg width="545" height="136" viewBox="0 0 545 136" fill="none" xmlns="http://www.w3.org/2000/svg">
<path fill-rule="evenodd" clip-rule="evenodd" d="M427.932 135.863C390.414 135.863 360 105.449 360 67.9316C360 30.414 390.414 9.21865e-06 427.932 5.93876e-06C465.449 2.65888e-06 495.863 30.414 495.863 67.9315C495.863 105.449 465.449 135.863 427.932 135.863ZM398.516 118.88C379.211 107.734 376.73 75.8877 392.975 47.7496C409.221 19.6114 438.041 5.83671 457.347 16.9829C476.653 28.1291 479.133 59.9754 462.888 88.1136C446.642 116.252 417.822 130.026 398.516 118.88Z" fill="url(#paint0_linear)"/>
<g filter="url(#filter0_d)">
<mask id="path-2-outside-1" maskUnits="userSpaceOnUse" x="10" y="18" width="525" height="91" fill="black">
<rect fill="white" x="10" y="18" width="525" height="91"/>
<path d="M62.12 88.608C62.12 94.752 59.864 99.552 55.352 103.008C50.84 106.464 44.312 108.192 35.768 108.192C32.12 108.192 28.76 107.856 25.688 107.184C22.616 106.608 19.976 105.84 17.768 104.88C15.656 103.824 13.976 102.672 12.728 101.424C11.576 100.08 11 98.736 11 97.392C11 96.24 11.288 95.136 11.864 94.08C12.536 93.024 13.496 92.112 14.744 91.344C17.336 93.264 20.36 94.992 23.816 96.528C27.272 97.968 31.208 98.688 35.624 98.688C45.608 98.688 50.6 95.328 50.6 88.608C50.6 83.136 47.288 79.584 40.664 77.952L28.712 74.784C22.856 73.248 18.584 71.04 15.896 68.16C13.208 65.184 11.864 61.392 11.864 56.784C11.864 54.288 12.344 51.888 13.304 49.584C14.36 47.28 15.944 45.264 18.056 43.536C20.168 41.808 22.76 40.464 25.832 39.504C29 38.448 32.696 37.92 36.92 37.92C43.64 37.92 49.064 38.928 53.192 40.944C57.32 42.864 59.384 45.12 59.384 47.712C59.384 48.96 59.048 50.064 58.376 51.024C57.8 51.984 56.984 52.704 55.928 53.184C54.2 52.032 51.752 50.784 48.584 49.44C45.416 48.096 41.672 47.424 37.352 47.424C33.032 47.424 29.576 48.24 26.984 49.872C24.488 51.504 23.24 53.808 23.24 56.784C23.24 58.992 23.96 60.864 25.4 62.4C26.84 63.936 29.24 65.088 32.6 65.856L42.536 68.304C49.064 69.936 53.96 72.384 57.224 75.648C60.488 78.816 62.12 83.136 62.12 88.608Z"/>
<path d="M111.101 47.568C107.837 47.568 104.813 48.144 102.029 49.296C99.2454 50.352 96.8454 51.984 94.8294 54.192C92.8134 56.304 91.2294 58.992 90.0774 62.256C88.9254 65.424 88.3494 69.072 88.3494 73.2C88.3494 81.456 90.4134 87.792 94.5414 92.208C98.6694 96.528 104.189 98.688 111.101 98.688C115.133 98.688 118.493 98.16 121.181 97.104C123.869 95.952 126.269 94.656 128.381 93.216C129.437 93.792 130.301 94.512 130.973 95.376C131.645 96.24 131.981 97.296 131.981 98.544C131.981 99.888 131.453 101.136 130.397 102.288C129.341 103.44 127.853 104.448 125.933 105.312C124.109 106.176 121.901 106.848 119.309 107.328C116.813 107.904 114.077 108.192 111.101 108.192C106.109 108.192 101.501 107.472 97.2774 106.032C93.0534 104.592 89.4054 102.432 86.3334 99.552C83.2614 96.672 80.8614 93.072 79.1334 88.752C77.4054 84.336 76.5414 79.152 76.5414 73.2C76.5414 67.344 77.4534 62.256 79.2774 57.936C81.1014 53.52 83.5494 49.824 86.6214 46.848C89.6934 43.872 93.2934 41.664 97.4214 40.224C101.645 38.688 106.109 37.92 110.813 37.92C113.789 37.92 116.525 38.208 119.021 38.784C121.613 39.264 123.821 39.984 125.645 40.944C127.469 41.904 128.861 43.008 129.821 44.256C130.877 45.408 131.405 46.608 131.405 47.856C131.405 49.008 131.069 50.016 130.397 50.88C129.725 51.744 128.861 52.416 127.805 52.896C125.693 51.456 123.389 50.208 120.893 49.152C118.397 48.096 115.133 47.568 111.101 47.568Z"/>
<path d="M173.374 98.832C177.406 98.832 180.718 98.448 183.31 97.68C185.998 96.816 187.918 96 189.07 95.232V74.352L171.214 76.224C166.221 76.704 162.525 77.856 160.126 79.68C157.726 81.408 156.525 84 156.525 87.456C156.525 91.104 157.918 93.936 160.702 95.952C163.486 97.872 167.71 98.832 173.374 98.832ZM173.23 37.92C181.582 37.92 188.206 39.792 193.102 43.536C197.997 47.28 200.446 53.184 200.446 61.248V95.376C200.446 97.488 200.014 99.12 199.15 100.272C198.382 101.328 197.182 102.336 195.549 103.296C193.245 104.64 190.173 105.792 186.333 106.752C182.589 107.808 178.27 108.336 173.374 108.336C164.35 108.336 157.342 106.56 152.35 103.008C147.454 99.456 145.005 94.32 145.005 87.6C145.005 81.264 147.069 76.512 151.197 73.344C155.326 70.08 161.133 68.064 168.622 67.296L189.07 65.28V61.248C189.07 56.448 187.63 52.944 184.749 50.736C181.869 48.528 177.981 47.424 173.085 47.424C169.053 47.424 165.262 48 161.71 49.152C158.158 50.304 154.99 51.6 152.206 53.04C151.438 52.368 150.717 51.6 150.046 50.736C149.469 49.872 149.182 48.912 149.182 47.856C149.182 46.512 149.518 45.408 150.189 44.544C150.861 43.68 151.917 42.864 153.357 42.096C155.949 40.752 158.926 39.744 162.286 39.072C165.646 38.304 169.294 37.92 173.23 37.92Z"/>
<path d="M234.145 106.032C233.665 106.224 232.945 106.416 231.985 106.608C231.025 106.896 229.969 107.04 228.817 107.04C224.689 107.04 222.625 105.312 222.625 101.856V20.008C223.105 19.816 223.825 19.624 224.785 19.432C225.841 19.144 226.897 19 227.953 19C232.081 19 234.145 20.728 234.145 24.184V106.032Z"/>
<path d="M265.118 79.824C267.71 92.4 275.966 98.688 289.886 98.688C293.918 98.688 297.566 98.016 300.83 96.672C304.094 95.328 306.686 93.888 308.606 92.352C310.91 93.696 312.062 95.52 312.062 97.824C312.062 99.168 311.438 100.464 310.19 101.712C309.038 102.96 307.406 104.064 305.294 105.024C303.278 105.984 300.878 106.752 298.094 107.328C295.406 107.904 292.478 108.192 289.31 108.192C278.174 108.192 269.342 105.168 262.814 99.12C256.382 93.072 253.166 84.24 253.166 72.624C253.166 67.152 253.934 62.304 255.47 58.08C257.102 53.76 259.31 50.112 262.094 47.136C264.974 44.16 268.382 41.904 272.318 40.368C276.254 38.736 280.526 37.92 285.134 37.92C289.454 37.92 293.438 38.64 297.086 40.08C300.734 41.52 303.854 43.584 306.446 46.272C309.134 48.864 311.198 51.984 312.638 55.632C314.174 59.184 314.942 63.12 314.942 67.44C314.942 69.552 314.462 71.088 313.502 72.048C312.542 72.912 311.198 73.44 309.47 73.632L265.118 79.824ZM284.99 47.28C279.134 47.28 274.286 49.344 270.446 53.472C266.606 57.504 264.59 63.312 264.398 70.896L303.998 65.424C303.518 60.144 301.646 55.824 298.382 52.464C295.214 49.008 290.75 47.28 284.99 47.28Z"/>
<path d="M354.334 108.192C347.614 108.192 342.142 106.704 337.918 103.728C333.79 100.752 331.726 95.808 331.726 88.896V20.496C332.206 20.304 332.926 20.112 333.886 19.92C334.942 19.632 336.046 19.488 337.198 19.488C341.23 19.488 343.246 21.216 343.246 24.672V41.232H366.862C367.15 41.712 367.438 42.384 367.726 43.248C368.014 44.016 368.158 44.88 368.158 45.84C368.158 49.104 366.718 50.736 363.838 50.736H343.246V88.176C343.246 92.016 344.302 94.752 346.414 96.384C348.622 97.92 351.694 98.688 355.63 98.688C357.262 98.688 359.086 98.4 361.102 97.824C363.118 97.248 364.798 96.576 366.142 95.808C366.718 96.384 367.246 97.104 367.726 97.968C368.206 98.832 368.446 99.84 368.446 100.992C368.446 103.104 367.198 104.832 364.702 106.176C362.206 107.52 358.75 108.192 354.334 108.192Z"/>
<path d="M504.165 106.032C503.685 106.224 502.965 106.416 502.005 106.608C501.045 106.896 499.989 107.04 498.837 107.04C494.709 107.04 492.645 105.312 492.645 101.856V53.04C492.645 50.832 493.029 49.104 493.797 47.856C494.661 46.512 496.053 45.216 497.973 43.968C500.469 42.336 503.829 40.944 508.053 39.792C512.373 38.544 517.221 37.92 522.597 37.92C530.277 37.92 534.117 39.84 534.117 43.68C534.117 44.64 533.973 45.552 533.685 46.416C533.397 47.184 533.013 47.856 532.533 48.432C531.573 48.24 530.325 48.048 528.789 47.856C527.253 47.664 525.717 47.568 524.181 47.568C519.765 47.568 515.877 48.048 512.517 49.008C509.157 49.872 506.373 50.928 504.165 52.176V106.032Z"/>
</mask>
<path d="M62.12 88.608C62.12 94.752 59.864 99.552 55.352 103.008C50.84 106.464 44.312 108.192 35.768 108.192C32.12 108.192 28.76 107.856 25.688 107.184C22.616 106.608 19.976 105.84 17.768 104.88C15.656 103.824 13.976 102.672 12.728 101.424C11.576 100.08 11 98.736 11 97.392C11 96.24 11.288 95.136 11.864 94.08C12.536 93.024 13.496 92.112 14.744 91.344C17.336 93.264 20.36 94.992 23.816 96.528C27.272 97.968 31.208 98.688 35.624 98.688C45.608 98.688 50.6 95.328 50.6 88.608C50.6 83.136 47.288 79.584 40.664 77.952L28.712 74.784C22.856 73.248 18.584 71.04 15.896 68.16C13.208 65.184 11.864 61.392 11.864 56.784C11.864 54.288 12.344 51.888 13.304 49.584C14.36 47.28 15.944 45.264 18.056 43.536C20.168 41.808 22.76 40.464 25.832 39.504C29 38.448 32.696 37.92 36.92 37.92C43.64 37.92 49.064 38.928 53.192 40.944C57.32 42.864 59.384 45.12 59.384 47.712C59.384 48.96 59.048 50.064 58.376 51.024C57.8 51.984 56.984 52.704 55.928 53.184C54.2 52.032 51.752 50.784 48.584 49.44C45.416 48.096 41.672 47.424 37.352 47.424C33.032 47.424 29.576 48.24 26.984 49.872C24.488 51.504 23.24 53.808 23.24 56.784C23.24 58.992 23.96 60.864 25.4 62.4C26.84 63.936 29.24 65.088 32.6 65.856L42.536 68.304C49.064 69.936 53.96 72.384 57.224 75.648C60.488 78.816 62.12 83.136 62.12 88.608Z" fill="#EDEDED"/>
<path d="M111.101 47.568C107.837 47.568 104.813 48.144 102.029 49.296C99.2454 50.352 96.8454 51.984 94.8294 54.192C92.8134 56.304 91.2294 58.992 90.0774 62.256C88.9254 65.424 88.3494 69.072 88.3494 73.2C88.3494 81.456 90.4134 87.792 94.5414 92.208C98.6694 96.528 104.189 98.688 111.101 98.688C115.133 98.688 118.493 98.16 121.181 97.104C123.869 95.952 126.269 94.656 128.381 93.216C129.437 93.792 130.301 94.512 130.973 95.376C131.645 96.24 131.981 97.296 131.981 98.544C131.981 99.888 131.453 101.136 130.397 102.288C129.341 103.44 127.853 104.448 125.933 105.312C124.109 106.176 121.901 106.848 119.309 107.328C116.813 107.904 114.077 108.192 111.101 108.192C106.109 108.192 101.501 107.472 97.2774 106.032C93.0534 104.592 89.4054 102.432 86.3334 99.552C83.2614 96.672 80.8614 93.072 79.1334 88.752C77.4054 84.336 76.5414 79.152 76.5414 73.2C76.5414 67.344 77.4534 62.256 79.2774 57.936C81.1014 53.52 83.5494 49.824 86.6214 46.848C89.6934 43.872 93.2934 41.664 97.4214 40.224C101.645 38.688 106.109 37.92 110.813 37.92C113.789 37.92 116.525 38.208 119.021 38.784C121.613 39.264 123.821 39.984 125.645 40.944C127.469 41.904 128.861 43.008 129.821 44.256C130.877 45.408 131.405 46.608 131.405 47.856C131.405 49.008 131.069 50.016 130.397 50.88C129.725 51.744 128.861 52.416 127.805 52.896C125.693 51.456 123.389 50.208 120.893 49.152C118.397 48.096 115.133 47.568 111.101 47.568Z" fill="#EDEDED"/>
<path d="M173.374 98.832C177.406 98.832 180.718 98.448 183.31 97.68C185.998 96.816 187.918 96 189.07 95.232V74.352L171.214 76.224C166.221 76.704 162.525 77.856 160.126 79.68C157.726 81.408 156.525 84 156.525 87.456C156.525 91.104 157.918 93.936 160.702 95.952C163.486 97.872 167.71 98.832 173.374 98.832ZM173.23 37.92C181.582 37.92 188.206 39.792 193.102 43.536C197.997 47.28 200.446 53.184 200.446 61.248V95.376C200.446 97.488 200.014 99.12 199.15 100.272C198.382 101.328 197.182 102.336 195.549 103.296C193.245 104.64 190.173 105.792 186.333 106.752C182.589 107.808 178.27 108.336 173.374 108.336C164.35 108.336 157.342 106.56 152.35 103.008C147.454 99.456 145.005 94.32 145.005 87.6C145.005 81.264 147.069 76.512 151.197 73.344C155.326 70.08 161.133 68.064 168.622 67.296L189.07 65.28V61.248C189.07 56.448 187.63 52.944 184.749 50.736C181.869 48.528 177.981 47.424 173.085 47.424C169.053 47.424 165.262 48 161.71 49.152C158.158 50.304 154.99 51.6 152.206 53.04C151.438 52.368 150.717 51.6 150.046 50.736C149.469 49.872 149.182 48.912 149.182 47.856C149.182 46.512 149.518 45.408 150.189 44.544C150.861 43.68 151.917 42.864 153.357 42.096C155.949 40.752 158.926 39.744 162.286 39.072C165.646 38.304 169.294 37.92 173.23 37.92Z" fill="#EDEDED"/>
<path d="M234.145 106.032C233.665 106.224 232.945 106.416 231.985 106.608C231.025 106.896 229.969 107.04 228.817 107.04C224.689 107.04 222.625 105.312 222.625 101.856V20.008C223.105 19.816 223.825 19.624 224.785 19.432C225.841 19.144 226.897 19 227.953 19C232.081 19 234.145 20.728 234.145 24.184V106.032Z" fill="#EDEDED"/>
<path d="M265.118 79.824C267.71 92.4 275.966 98.688 289.886 98.688C293.918 98.688 297.566 98.016 300.83 96.672C304.094 95.328 306.686 93.888 308.606 92.352C310.91 93.696 312.062 95.52 312.062 97.824C312.062 99.168 311.438 100.464 310.19 101.712C309.038 102.96 307.406 104.064 305.294 105.024C303.278 105.984 300.878 106.752 298.094 107.328C295.406 107.904 292.478 108.192 289.31 108.192C278.174 108.192 269.342 105.168 262.814 99.12C256.382 93.072 253.166 84.24 253.166 72.624C253.166 67.152 253.934 62.304 255.47 58.08C257.102 53.76 259.31 50.112 262.094 47.136C264.974 44.16 268.382 41.904 272.318 40.368C276.254 38.736 280.526 37.92 285.134 37.92C289.454 37.92 293.438 38.64 297.086 40.08C300.734 41.52 303.854 43.584 306.446 46.272C309.134 48.864 311.198 51.984 312.638 55.632C314.174 59.184 314.942 63.12 314.942 67.44C314.942 69.552 314.462 71.088 313.502 72.048C312.542 72.912 311.198 73.44 309.47 73.632L265.118 79.824ZM284.99 47.28C279.134 47.28 274.286 49.344 270.446 53.472C266.606 57.504 264.59 63.312 264.398 70.896L303.998 65.424C303.518 60.144 301.646 55.824 298.382 52.464C295.214 49.008 290.75 47.28 284.99 47.28Z" fill="#EDEDED"/>
<path d="M354.334 108.192C347.614 108.192 342.142 106.704 337.918 103.728C333.79 100.752 331.726 95.808 331.726 88.896V20.496C332.206 20.304 332.926 20.112 333.886 19.92C334.942 19.632 336.046 19.488 337.198 19.488C341.23 19.488 343.246 21.216 343.246 24.672V41.232H366.862C367.15 41.712 367.438 42.384 367.726 43.248C368.014 44.016 368.158 44.88 368.158 45.84C368.158 49.104 366.718 50.736 363.838 50.736H343.246V88.176C343.246 92.016 344.302 94.752 346.414 96.384C348.622 97.92 351.694 98.688 355.63 98.688C357.262 98.688 359.086 98.4 361.102 97.824C363.118 97.248 364.798 96.576 366.142 95.808C366.718 96.384 367.246 97.104 367.726 97.968C368.206 98.832 368.446 99.84 368.446 100.992C368.446 103.104 367.198 104.832 364.702 106.176C362.206 107.52 358.75 108.192 354.334 108.192Z" fill="#EDEDED"/>
<path d="M504.165 106.032C503.685 106.224 502.965 106.416 502.005 106.608C501.045 106.896 499.989 107.04 498.837 107.04C494.709 107.04 492.645 105.312 492.645 101.856V53.04C492.645 50.832 493.029 49.104 493.797 47.856C494.661 46.512 496.053 45.216 497.973 43.968C500.469 42.336 503.829 40.944 508.053 39.792C512.373 38.544 517.221 37.92 522.597 37.92C530.277 37.92 534.117 39.84 534.117 43.68C534.117 44.64 533.973 45.552 533.685 46.416C533.397 47.184 533.013 47.856 532.533 48.432C531.573 48.24 530.325 48.048 528.789 47.856C527.253 47.664 525.717 47.568 524.181 47.568C519.765 47.568 515.877 48.048 512.517 49.008C509.157 49.872 506.373 50.928 504.165 52.176V106.032Z" fill="#EDEDED"/>
<path d="M62.12 88.608C62.12 94.752 59.864 99.552 55.352 103.008C50.84 106.464 44.312 108.192 35.768 108.192C32.12 108.192 28.76 107.856 25.688 107.184C22.616 106.608 19.976 105.84 17.768 104.88C15.656 103.824 13.976 102.672 12.728 101.424C11.576 100.08 11 98.736 11 97.392C11 96.24 11.288 95.136 11.864 94.08C12.536 93.024 13.496 92.112 14.744 91.344C17.336 93.264 20.36 94.992 23.816 96.528C27.272 97.968 31.208 98.688 35.624 98.688C45.608 98.688 50.6 95.328 50.6 88.608C50.6 83.136 47.288 79.584 40.664 77.952L28.712 74.784C22.856 73.248 18.584 71.04 15.896 68.16C13.208 65.184 11.864 61.392 11.864 56.784C11.864 54.288 12.344 51.888 13.304 49.584C14.36 47.28 15.944 45.264 18.056 43.536C20.168 41.808 22.76 40.464 25.832 39.504C29 38.448 32.696 37.92 36.92 37.92C43.64 37.92 49.064 38.928 53.192 40.944C57.32 42.864 59.384 45.12 59.384 47.712C59.384 48.96 59.048 50.064 58.376 51.024C57.8 51.984 56.984 52.704 55.928 53.184C54.2 52.032 51.752 50.784 48.584 49.44C45.416 48.096 41.672 47.424 37.352 47.424C33.032 47.424 29.576 48.24 26.984 49.872C24.488 51.504 23.24 53.808 23.24 56.784C23.24 58.992 23.96 60.864 25.4 62.4C26.84 63.936 29.24 65.088 32.6 65.856L42.536 68.304C49.064 69.936 53.96 72.384 57.224 75.648C60.488 78.816 62.12 83.136 62.12 88.608Z" stroke="url(#paint1_linear)" stroke-width="0.5" mask="url(#path-2-outside-1)"/>
<path d="M111.101 47.568C107.837 47.568 104.813 48.144 102.029 49.296C99.2454 50.352 96.8454 51.984 94.8294 54.192C92.8134 56.304 91.2294 58.992 90.0774 62.256C88.9254 65.424 88.3494 69.072 88.3494 73.2C88.3494 81.456 90.4134 87.792 94.5414 92.208C98.6694 96.528 104.189 98.688 111.101 98.688C115.133 98.688 118.493 98.16 121.181 97.104C123.869 95.952 126.269 94.656 128.381 93.216C129.437 93.792 130.301 94.512 130.973 95.376C131.645 96.24 131.981 97.296 131.981 98.544C131.981 99.888 131.453 101.136 130.397 102.288C129.341 103.44 127.853 104.448 125.933 105.312C124.109 106.176 121.901 106.848 119.309 107.328C116.813 107.904 114.077 108.192 111.101 108.192C106.109 108.192 101.501 107.472 97.2774 106.032C93.0534 104.592 89.4054 102.432 86.3334 99.552C83.2614 96.672 80.8614 93.072 79.1334 88.752C77.4054 84.336 76.5414 79.152 76.5414 73.2C76.5414 67.344 77.4534 62.256 79.2774 57.936C81.1014 53.52 83.5494 49.824 86.6214 46.848C89.6934 43.872 93.2934 41.664 97.4214 40.224C101.645 38.688 106.109 37.92 110.813 37.92C113.789 37.92 116.525 38.208 119.021 38.784C121.613 39.264 123.821 39.984 125.645 40.944C127.469 41.904 128.861 43.008 129.821 44.256C130.877 45.408 131.405 46.608 131.405 47.856C131.405 49.008 131.069 50.016 130.397 50.88C129.725 51.744 128.861 52.416 127.805 52.896C125.693 51.456 123.389 50.208 120.893 49.152C118.397 48.096 115.133 47.568 111.101 47.568Z" stroke="url(#paint2_linear)" stroke-width="0.5" mask="url(#path-2-outside-1)"/>
<path d="M173.374 98.832C177.406 98.832 180.718 98.448 183.31 97.68C185.998 96.816 187.918 96 189.07 95.232V74.352L171.214 76.224C166.221 76.704 162.525 77.856 160.126 79.68C157.726 81.408 156.525 84 156.525 87.456C156.525 91.104 157.918 93.936 160.702 95.952C163.486 97.872 167.71 98.832 173.374 98.832ZM173.23 37.92C181.582 37.92 188.206 39.792 193.102 43.536C197.997 47.28 200.446 53.184 200.446 61.248V95.376C200.446 97.488 200.014 99.12 199.15 100.272C198.382 101.328 197.182 102.336 195.549 103.296C193.245 104.64 190.173 105.792 186.333 106.752C182.589 107.808 178.27 108.336 173.374 108.336C164.35 108.336 157.342 106.56 152.35 103.008C147.454 99.456 145.005 94.32 145.005 87.6C145.005 81.264 147.069 76.512 151.197 73.344C155.326 70.08 161.133 68.064 168.622 67.296L189.07 65.28V61.248C189.07 56.448 187.63 52.944 184.749 50.736C181.869 48.528 177.981 47.424 173.085 47.424C169.053 47.424 165.262 48 161.71 49.152C158.158 50.304 154.99 51.6 152.206 53.04C151.438 52.368 150.717 51.6 150.046 50.736C149.469 49.872 149.182 48.912 149.182 47.856C149.182 46.512 149.518 45.408 150.189 44.544C150.861 43.68 151.917 42.864 153.357 42.096C155.949 40.752 158.926 39.744 162.286 39.072C165.646 38.304 169.294 37.92 173.23 37.92Z" stroke="url(#paint3_linear)" stroke-width="0.5" mask="url(#path-2-outside-1)"/>
<path d="M234.145 106.032C233.665 106.224 232.945 106.416 231.985 106.608C231.025 106.896 229.969 107.04 228.817 107.04C224.689 107.04 222.625 105.312 222.625 101.856V20.008C223.105 19.816 223.825 19.624 224.785 19.432C225.841 19.144 226.897 19 227.953 19C232.081 19 234.145 20.728 234.145 24.184V106.032Z" stroke="url(#paint4_linear)" stroke-width="0.5" mask="url(#path-2-outside-1)"/>
<path d="M265.118 79.824C267.71 92.4 275.966 98.688 289.886 98.688C293.918 98.688 297.566 98.016 300.83 96.672C304.094 95.328 306.686 93.888 308.606 92.352C310.91 93.696 312.062 95.52 312.062 97.824C312.062 99.168 311.438 100.464 310.19 101.712C309.038 102.96 307.406 104.064 305.294 105.024C303.278 105.984 300.878 106.752 298.094 107.328C295.406 107.904 292.478 108.192 289.31 108.192C278.174 108.192 269.342 105.168 262.814 99.12C256.382 93.072 253.166 84.24 253.166 72.624C253.166 67.152 253.934 62.304 255.47 58.08C257.102 53.76 259.31 50.112 262.094 47.136C264.974 44.16 268.382 41.904 272.318 40.368C276.254 38.736 280.526 37.92 285.134 37.92C289.454 37.92 293.438 38.64 297.086 40.08C300.734 41.52 303.854 43.584 306.446 46.272C309.134 48.864 311.198 51.984 312.638 55.632C314.174 59.184 314.942 63.12 314.942 67.44C314.942 69.552 314.462 71.088 313.502 72.048C312.542 72.912 311.198 73.44 309.47 73.632L265.118 79.824ZM284.99 47.28C279.134 47.28 274.286 49.344 270.446 53.472C266.606 57.504 264.59 63.312 264.398 70.896L303.998 65.424C303.518 60.144 301.646 55.824 298.382 52.464C295.214 49.008 290.75 47.28 284.99 47.28Z" stroke="url(#paint5_linear)" stroke-width="0.5" mask="url(#path-2-outside-1)"/>
<path d="M354.334 108.192C347.614 108.192 342.142 106.704 337.918 103.728C333.79 100.752 331.726 95.808 331.726 88.896V20.496C332.206 20.304 332.926 20.112 333.886 19.92C334.942 19.632 336.046 19.488 337.198 19.488C341.23 19.488 343.246 21.216 343.246 24.672V41.232H366.862C367.15 41.712 367.438 42.384 367.726 43.248C368.014 44.016 368.158 44.88 368.158 45.84C368.158 49.104 366.718 50.736 363.838 50.736H343.246V88.176C343.246 92.016 344.302 94.752 346.414 96.384C348.622 97.92 351.694 98.688 355.63 98.688C357.262 98.688 359.086 98.4 361.102 97.824C363.118 97.248 364.798 96.576 366.142 95.808C366.718 96.384 367.246 97.104 367.726 97.968C368.206 98.832 368.446 99.84 368.446 100.992C368.446 103.104 367.198 104.832 364.702 106.176C362.206 107.52 358.75 108.192 354.334 108.192Z" stroke="url(#paint6_linear)" stroke-width="0.5" mask="url(#path-2-outside-1)"/>
<path d="M504.165 106.032C503.685 106.224 502.965 106.416 502.005 106.608C501.045 106.896 499.989 107.04 498.837 107.04C494.709 107.04 492.645 105.312 492.645 101.856V53.04C492.645 50.832 493.029 49.104 493.797 47.856C494.661 46.512 496.053 45.216 497.973 43.968C500.469 42.336 503.829 40.944 508.053 39.792C512.373 38.544 517.221 37.92 522.597 37.92C530.277 37.92 534.117 39.84 534.117 43.68C534.117 44.64 533.973 45.552 533.685 46.416C533.397 47.184 533.013 47.856 532.533 48.432C531.573 48.24 530.325 48.048 528.789 47.856C527.253 47.664 525.717 47.568 524.181 47.568C519.765 47.568 515.877 48.048 512.517 49.008C509.157 49.872 506.373 50.928 504.165 52.176V106.032Z" stroke="url(#paint7_linear)" stroke-width="0.5" mask="url(#path-2-outside-1)"/>
</g>
<defs>
<filter id="filter0_d" x="0.75" y="11.75" width="543.617" height="109.836" filterUnits="userSpaceOnUse" color-interpolation-filters="sRGB">
<feFlood flood-opacity="0" result="BackgroundImageFix"/>
<feColorMatrix in="SourceAlpha" type="matrix" values="0 0 0 0 0 0 0 0 0 0 0 0 0 0 0 0 0 0 127 0"/>
<feOffset dy="3"/>
<feGaussianBlur stdDeviation="5"/>
<feColorMatrix type="matrix" values="0 0 0 0 0 0 0 0 0 0 0 0 0 0 0 0 0 0 0.1 0"/>
<feBlend mode="normal" in2="BackgroundImageFix" result="effect1_dropShadow"/>
<feBlend mode="normal" in="SourceGraphic" in2="effect1_dropShadow" result="shape"/>
</filter>
<linearGradient id="paint0_linear" x1="427.932" y1="5.93877e-06" x2="427.932" y2="135.863" gradientUnits="userSpaceOnUse">
<stop stop-color="#3F0D97"/>
<stop offset="1" stop-color="#4F10BC"/>
</linearGradient>
<linearGradient id="paint1_linear" x1="11" y1="19" x2="534" y2="108" gradientUnits="userSpaceOnUse">
<stop stop-color="white"/>
<stop offset="0.0001" stop-color="#D8D8D8"/>
<stop offset="1" stop-color="#C7C7C7"/>
</linearGradient>
<linearGradient id="paint2_linear" x1="11" y1="19" x2="534" y2="108" gradientUnits="userSpaceOnUse">
<stop stop-color="white"/>
<stop offset="0.0001" stop-color="#D8D8D8"/>
<stop offset="1" stop-color="#C7C7C7"/>
</linearGradient>
<linearGradient id="paint3_linear" x1="11" y1="19" x2="534" y2="108" gradientUnits="userSpaceOnUse">
<stop stop-color="white"/>
<stop offset="0.0001" stop-color="#D8D8D8"/>
<stop offset="1" stop-color="#C7C7C7"/>
</linearGradient>
<linearGradient id="paint4_linear" x1="11" y1="19" x2="534" y2="108" gradientUnits="userSpaceOnUse">
<stop stop-color="white"/>
<stop offset="0.0001" stop-color="#D8D8D8"/>
<stop offset="1" stop-color="#C7C7C7"/>
</linearGradient>
<linearGradient id="paint5_linear" x1="11" y1="19" x2="534" y2="108" gradientUnits="userSpaceOnUse">
<stop stop-color="white"/>
<stop offset="0.0001" stop-color="#D8D8D8"/>
<stop offset="1" stop-color="#C7C7C7"/>
</linearGradient>
<linearGradient id="paint6_linear" x1="11" y1="19" x2="534" y2="108" gradientUnits="userSpaceOnUse">
<stop stop-color="white"/>
<stop offset="0.0001" stop-color="#D8D8D8"/>
<stop offset="1" stop-color="#C7C7C7"/>
</linearGradient>
<linearGradient id="paint7_linear" x1="11" y1="19" x2="534" y2="108" gradientUnits="userSpaceOnUse">
<stop stop-color="white"/>
<stop offset="0.0001" stop-color="#D8D8D8"/>
<stop offset="1" stop-color="#C7C7C7"/>
</linearGradient>
</defs>
</svg>
