<svg width="416" height="18" viewBox="0 0 416 18" fill="none" xmlns="http://www.w3.org/2000/svg">
<path d="M4.0918 1.48047V6.68555H6.50391C7.05729 6.68555 7.46094 6.5651 7.71484 6.32422C7.97526 6.07682 8.14779 5.5918 8.23242 4.86914H8.59375V9.35156H8.23242C8.22591 8.83724 8.15755 8.45964 8.02734 8.21875C7.90365 7.97786 7.72786 7.79883 7.5 7.68164C7.27865 7.55794 6.94661 7.49609 6.50391 7.49609H4.0918V11.6562C4.0918 12.3268 4.13411 12.7695 4.21875 12.9844C4.28385 13.1471 4.42057 13.2871 4.62891 13.4043C4.91536 13.5605 5.21484 13.6387 5.52734 13.6387H6.00586V14H0.322266V13.6387H0.791016C1.33789 13.6387 1.73503 13.4792 1.98242 13.1602C2.13867 12.9518 2.2168 12.4505 2.2168 11.6562V3.10156C2.2168 2.43099 2.17448 1.98828 2.08984 1.77344C2.02474 1.61068 1.89128 1.4707 1.68945 1.35352C1.40951 1.19727 1.11003 1.11914 0.791016 1.11914H0.322266V0.757812H10.1758L10.3027 3.66797H9.96094C9.79167 3.04948 9.5931 2.59701 9.36523 2.31055C9.14388 2.01758 8.86719 1.80599 8.53516 1.67578C8.20964 1.54557 7.70182 1.48047 7.01172 1.48047H4.0918ZM31.3125 1.48047V6.71484V11.793C31.3125 12.3789 31.3385 12.737 31.3906 12.8672C31.4427 12.9909 31.5339 13.0918 31.6641 13.1699C31.7943 13.2415 32.0417 13.2773 32.4062 13.2773H34.6523C35.401 13.2773 35.9447 13.2253 36.2832 13.1211C36.6217 13.0169 36.9473 12.8118 37.2598 12.5059C37.6634 12.1022 38.0768 11.4935 38.5 10.6797H38.8906L37.748 14H27.543V13.6387H28.0117C28.3242 13.6387 28.6204 13.5638 28.9004 13.4141C29.1087 13.3099 29.2487 13.1536 29.3203 12.9453C29.3984 12.737 29.4375 12.3105 29.4375 11.666V3.0625C29.4375 2.22266 29.3529 1.70508 29.1836 1.50977C28.9492 1.24935 28.5586 1.11914 28.0117 1.11914H27.543V0.757812H37.748L37.8945 3.6582H37.5137C37.377 2.96159 37.224 2.48307 37.0547 2.22266C36.8919 1.96224 36.6478 1.76367 36.3223 1.62695C36.0618 1.5293 35.6029 1.48047 34.9453 1.48047H31.3125ZM66.8242 10.3379L67.1465 10.4062L66.0137 14H55.7598V13.6387H56.2578C56.8177 13.6387 57.2181 13.4564 57.459 13.0918C57.5957 12.8835 57.6641 12.4017 57.6641 11.6465V3.10156C57.6641 2.27474 57.5729 1.75716 57.3906 1.54883C57.1367 1.26237 56.7591 1.11914 56.2578 1.11914H55.7598V0.757812H61.7559V1.11914C61.0527 1.11263 60.5579 1.17773 60.2715 1.31445C59.9915 1.45117 59.7995 1.6237 59.6953 1.83203C59.5911 2.04036 59.5391 2.53841 59.5391 3.32617V11.6465C59.5391 12.1868 59.5911 12.5579 59.6953 12.7598C59.7734 12.8965 59.8939 12.9974 60.0566 13.0625C60.2194 13.1276 60.7272 13.1602 61.5801 13.1602H62.5469C63.5625 13.1602 64.2754 13.0853 64.6855 12.9355C65.0957 12.7858 65.4701 12.5221 65.8086 12.1445C66.1471 11.7604 66.4857 11.1582 66.8242 10.3379ZM89.7578 13.6387V14H84.084V13.6387H84.5527C85.0996 13.6387 85.4967 13.4792 85.7441 13.1602C85.9004 12.9518 85.9785 12.4505 85.9785 11.6562V3.10156C85.9785 2.43099 85.9362 1.98828 85.8516 1.77344C85.7865 1.61068 85.653 1.4707 85.4512 1.35352C85.1647 1.19727 84.8652 1.11914 84.5527 1.11914H84.084V0.757812H89.7578V1.11914H89.2793C88.7389 1.11914 88.3451 1.27865 88.0977 1.59766C87.9349 1.80599 87.8535 2.30729 87.8535 3.10156V11.6562C87.8535 12.3268 87.8958 12.7695 87.9805 12.9844C88.0456 13.1471 88.1823 13.2871 88.3906 13.4043C88.6706 13.5605 88.9668 13.6387 89.2793 13.6387H89.7578ZM110.348 7.79883V11.6562C110.348 12.4896 110.439 13.0072 110.621 13.209C110.868 13.4954 111.243 13.6387 111.744 13.6387H112.252V14H106.578V13.6387H107.076C107.636 13.6387 108.036 13.4564 108.277 13.0918C108.408 12.89 108.473 12.4115 108.473 11.6562V3.10156C108.473 2.26823 108.385 1.75065 108.209 1.54883C107.955 1.26237 107.577 1.11914 107.076 1.11914H106.578V0.757812H111.432C112.617 0.757812 113.551 0.88151 114.234 1.12891C114.918 1.36979 115.494 1.77995 115.963 2.35938C116.432 2.9388 116.666 3.62565 116.666 4.41992C116.666 5.50065 116.308 6.37956 115.592 7.05664C114.882 7.73372 113.876 8.07227 112.574 8.07227C112.255 8.07227 111.91 8.04948 111.539 8.00391C111.168 7.95833 110.771 7.88997 110.348 7.79883ZM110.348 7.24219C110.693 7.30729 110.999 7.35612 111.266 7.38867C111.533 7.42122 111.76 7.4375 111.949 7.4375C112.626 7.4375 113.209 7.17708 113.697 6.65625C114.192 6.12891 114.439 5.44857 114.439 4.61523C114.439 4.04232 114.322 3.51172 114.088 3.02344C113.854 2.52865 113.521 2.16081 113.092 1.91992C112.662 1.67253 112.174 1.54883 111.627 1.54883C111.295 1.54883 110.868 1.61068 110.348 1.73438V7.24219ZM137.559 1.48047V6.71484V11.793C137.559 12.3789 137.585 12.737 137.637 12.8672C137.689 12.9909 137.78 13.0918 137.91 13.1699C138.04 13.2415 138.288 13.2773 138.652 13.2773H140.898C141.647 13.2773 142.191 13.2253 142.529 13.1211C142.868 13.0169 143.193 12.8118 143.506 12.5059C143.91 12.1022 144.323 11.4935 144.746 10.6797H145.137L143.994 14H133.789V13.6387H134.258C134.57 13.6387 134.867 13.5638 135.146 13.4141C135.355 13.3099 135.495 13.1536 135.566 12.9453C135.645 12.737 135.684 12.3105 135.684 11.666V3.0625C135.684 2.22266 135.599 1.70508 135.43 1.50977C135.195 1.24935 134.805 1.11914 134.258 1.11914H133.789V0.757812H143.994L144.141 3.6582H143.76C143.623 2.96159 143.47 2.48307 143.301 2.22266C143.138 1.96224 142.894 1.76367 142.568 1.62695C142.308 1.5293 141.849 1.48047 141.191 1.48047H137.559ZM199.949 14H196.414L191.932 7.80859C191.6 7.82161 191.329 7.82812 191.121 7.82812C191.036 7.82812 190.945 7.82812 190.848 7.82812C190.75 7.82161 190.649 7.8151 190.545 7.80859V11.6562C190.545 12.4896 190.636 13.0072 190.818 13.209C191.066 13.4954 191.437 13.6387 191.932 13.6387H192.449V14H186.775V13.6387H187.273C187.833 13.6387 188.234 13.4564 188.475 13.0918C188.611 12.89 188.68 12.4115 188.68 11.6562V3.10156C188.68 2.26823 188.589 1.75065 188.406 1.54883C188.152 1.26237 187.775 1.11914 187.273 1.11914H186.775V0.757812H191.6C193.006 0.757812 194.041 0.861979 194.705 1.07031C195.376 1.27214 195.942 1.64974 196.404 2.20312C196.873 2.75 197.107 3.4043 197.107 4.16602C197.107 4.97982 196.84 5.6862 196.307 6.28516C195.779 6.88411 194.959 7.30729 193.846 7.55469L196.58 11.3535C197.205 12.2259 197.742 12.8053 198.191 13.0918C198.641 13.3783 199.227 13.5605 199.949 13.6387V14ZM190.545 7.19336C190.669 7.19336 190.776 7.19661 190.867 7.20312C190.958 7.20312 191.033 7.20312 191.092 7.20312C192.355 7.20312 193.305 6.92969 193.943 6.38281C194.588 5.83594 194.91 5.13932 194.91 4.29297C194.91 3.46615 194.65 2.79557 194.129 2.28125C193.615 1.76042 192.931 1.5 192.078 1.5C191.701 1.5 191.189 1.56185 190.545 1.68555V7.19336ZM216.047 14V13.6387C216.548 13.5605 216.932 13.3978 217.199 13.1504C217.466 12.903 217.746 12.4277 218.039 11.7246L222.658 0.455078H223.02L227.941 11.7832C228.273 12.5514 228.56 13.0495 228.801 13.2773C229.042 13.4987 229.465 13.6191 230.07 13.6387V14H224.67V13.6387C225.288 13.5866 225.686 13.4824 225.861 13.3262C226.044 13.1699 226.135 12.9681 226.135 12.7207C226.135 12.4147 225.985 11.9167 225.686 11.2266L222.316 3.46289L219.191 11.1289C218.898 11.8385 218.752 12.3594 218.752 12.6914C218.752 12.9648 218.843 13.1829 219.025 13.3457C219.208 13.502 219.576 13.5996 220.129 13.6387V14H216.047ZM246.021 0.757812H249.615L257.711 10.6895V3.05273C257.711 2.23893 257.62 1.73112 257.438 1.5293C257.197 1.25586 256.816 1.11914 256.295 1.11914H255.836V0.757812H260.445V1.11914H259.977C259.417 1.11914 259.02 1.28841 258.785 1.62695C258.642 1.83529 258.57 2.31055 258.57 3.05273V14.2148H258.219L249.488 3.55078V11.7051C249.488 12.5189 249.576 13.0267 249.752 13.2285C249.999 13.502 250.38 13.6387 250.895 13.6387H251.363V14H246.754V13.6387H247.213C247.779 13.6387 248.18 13.4694 248.414 13.1309C248.557 12.9225 248.629 12.4473 248.629 11.7051V2.49609C248.245 2.04688 247.952 1.75065 247.75 1.60742C247.555 1.46419 247.265 1.33073 246.881 1.20703C246.692 1.14844 246.406 1.11914 246.021 1.11914V0.757812ZM277.08 14V13.6387H277.578C278.138 13.6387 278.535 13.4596 278.77 13.1016C278.913 12.8867 278.984 12.4049 278.984 11.6562V3.10156C278.984 2.27474 278.893 1.75716 278.711 1.54883C278.457 1.26237 278.079 1.11914 277.578 1.11914H277.08V0.757812H282.471C284.45 0.757812 285.954 0.982422 286.982 1.43164C288.018 1.88086 288.848 2.62956 289.473 3.67773C290.104 4.72591 290.42 5.93685 290.42 7.31055C290.42 9.15299 289.86 10.6927 288.74 11.9297C287.484 13.3099 285.57 14 282.998 14H277.08ZM280.859 13.043C281.686 13.2253 282.38 13.3164 282.939 13.3164C284.45 13.3164 285.703 12.7858 286.699 11.7246C287.695 10.6634 288.193 9.22461 288.193 7.4082C288.193 5.57878 287.695 4.13672 286.699 3.08203C285.703 2.02734 284.424 1.5 282.861 1.5C282.275 1.5 281.608 1.5944 280.859 1.7832V13.043ZM314.506 0.455078C316.225 0.455078 317.712 1.10938 318.969 2.41797C320.232 3.72005 320.863 5.34766 320.863 7.30078C320.863 9.3125 320.229 10.9824 318.959 12.3105C317.689 13.6387 316.153 14.3027 314.35 14.3027C312.527 14.3027 310.993 13.6549 309.75 12.3594C308.513 11.0638 307.895 9.38737 307.895 7.33008C307.895 5.22721 308.611 3.51172 310.043 2.18359C311.286 1.03125 312.774 0.455078 314.506 0.455078ZM314.32 1.16797C313.135 1.16797 312.185 1.60742 311.469 2.48633C310.577 3.58008 310.131 5.18164 310.131 7.29102C310.131 9.45247 310.593 11.1159 311.518 12.2812C312.227 13.1667 313.165 13.6094 314.33 13.6094C315.574 13.6094 316.599 13.1243 317.406 12.1543C318.22 11.1842 318.627 9.6543 318.627 7.56445C318.627 5.29883 318.181 3.60938 317.289 2.49609C316.573 1.61068 315.583 1.16797 314.32 1.16797ZM349.109 10.3379L349.432 10.4062L348.299 14H338.045V13.6387H338.543C339.103 13.6387 339.503 13.4564 339.744 13.0918C339.881 12.8835 339.949 12.4017 339.949 11.6465V3.10156C339.949 2.27474 339.858 1.75716 339.676 1.54883C339.422 1.26237 339.044 1.11914 338.543 1.11914H338.045V0.757812H344.041V1.11914C343.338 1.11263 342.843 1.17773 342.557 1.31445C342.277 1.45117 342.085 1.6237 341.98 1.83203C341.876 2.04036 341.824 2.53841 341.824 3.32617V11.6465C341.824 12.1868 341.876 12.5579 341.98 12.7598C342.059 12.8965 342.179 12.9974 342.342 13.0625C342.505 13.1276 343.012 13.1602 343.865 13.1602H344.832C345.848 13.1602 346.561 13.0853 346.971 12.9355C347.381 12.7858 347.755 12.5221 348.094 12.1445C348.432 11.7604 348.771 11.1582 349.109 10.3379ZM369.963 1.48047V6.68555H372.375C372.928 6.68555 373.332 6.5651 373.586 6.32422C373.846 6.07682 374.019 5.5918 374.104 4.86914H374.465V9.35156H374.104C374.097 8.83724 374.029 8.45964 373.898 8.21875C373.775 7.97786 373.599 7.79883 373.371 7.68164C373.15 7.55794 372.818 7.49609 372.375 7.49609H369.963V11.6562C369.963 12.3268 370.005 12.7695 370.09 12.9844C370.155 13.1471 370.292 13.2871 370.5 13.4043C370.786 13.5605 371.086 13.6387 371.398 13.6387H371.877V14H366.193V13.6387H366.662C367.209 13.6387 367.606 13.4792 367.854 13.1602C368.01 12.9518 368.088 12.4505 368.088 11.6562V3.10156C368.088 2.43099 368.046 1.98828 367.961 1.77344C367.896 1.61068 367.762 1.4707 367.561 1.35352C367.281 1.19727 366.981 1.11914 366.662 1.11914H366.193V0.757812H376.047L376.174 3.66797H375.832C375.663 3.04948 375.464 2.59701 375.236 2.31055C375.015 2.01758 374.738 1.80599 374.406 1.67578C374.081 1.54557 373.573 1.48047 372.883 1.48047H369.963ZM399.176 13.6387V14H393.502V13.6387H393.971C394.518 13.6387 394.915 13.4792 395.162 13.1602C395.318 12.9518 395.396 12.4505 395.396 11.6562V3.10156C395.396 2.43099 395.354 1.98828 395.27 1.77344C395.204 1.61068 395.071 1.4707 394.869 1.35352C394.583 1.19727 394.283 1.11914 393.971 1.11914H393.502V0.757812H399.176V1.11914H398.697C398.157 1.11914 397.763 1.27865 397.516 1.59766C397.353 1.80599 397.271 2.30729 397.271 3.10156V11.6562C397.271 12.3268 397.314 12.7695 397.398 12.9844C397.464 13.1471 397.6 13.2871 397.809 13.4043C398.089 13.5605 398.385 13.6387 398.697 13.6387H399.176Z" fill="#FFFFFF"/>
</svg>
